<svg width="14" height="30" viewBox="0 0 14 30" fill="none" xmlns="http://www.w3.org/2000/svg">
<path d="M0.333374 29.6667H13.6667V0.333332H0.333374V29.6667ZM7.00004 24.3333C6.64642 24.3333 6.30728 24.1929 6.05723 23.9428C5.80718 23.6928 5.66671 23.3536 5.66671 23C5.66671 22.6464 5.80718 22.3072 6.05723 22.0572C6.30728 21.8071 6.64642 21.6667 7.00004 21.6667C7.35366 21.6667 7.6928 21.8071 7.94285 22.0572C8.1929 22.3072 8.33337 22.6464 8.33337 23C8.33337 23.3536 8.1929 23.6928 7.94285 23.9428C7.6928 24.1929 7.35366 24.3333 7.00004 24.3333ZM7.00004 5.66667C7.35366 5.66667 7.6928 5.80714 7.94285 6.05719C8.1929 6.30724 8.33337 6.64638 8.33337 7C8.33337 7.35362 8.1929 7.69276 7.94285 7.94281C7.6928 8.19286 7.35366 8.33333 7.00004 8.33333C6.64642 8.33333 6.30728 8.19286 6.05723 7.94281C5.80718 7.69276 5.66671 7.35362 5.66671 7C5.66671 6.64638 5.80718 6.30724 6.05723 6.05719C6.30728 5.80714 6.64642 5.66667 7.00004 5.66667ZM7.00004 13.6667C7.35366 13.6667 7.6928 13.8071 7.94285 14.0572C8.1929 14.3072 8.33337 14.6464 8.33337 15C8.33337 15.3536 8.1929 15.6928 7.94285 15.9428C7.6928 16.1929 7.35366 16.3333 7.00004 16.3333C6.64642 16.3333 6.30728 16.1929 6.05723 15.9428C5.80718 15.6928 5.66671 15.3536 5.66671 15C5.66671 14.6464 5.80718 14.3072 6.05723 14.0572C6.30728 13.8071 6.64642 13.6667 7.00004 13.6667Z" fill="#7C3AED"/>
</svg>
