<svg width="32" height="10" viewBox="0 0 32 10" fill="none" xmlns="http://www.w3.org/2000/svg">
<path d="M31.22 2.144L28.24 0.751998C28.0266 0.652284 27.794 0.600274 27.5585 0.599583C27.3229 0.598893 27.09 0.64954 26.876 0.748L16.6774 5.44C16.4649 5.53769 16.2338 5.58826 16 5.58826C15.7662 5.58826 15.5351 5.53769 15.3227 5.44L5.12269 0.746668C4.90887 0.648409 4.67623 0.597865 4.44091 0.598556C4.2056 0.599247 3.97326 0.651153 3.76002 0.750666L0.780019 2.144C0.682891 2.18903 0.600708 2.26096 0.543205 2.35126C0.485701 2.44157 0.455288 2.54646 0.455568 2.65352C0.455849 2.76058 0.486813 2.86531 0.544789 2.95531C0.602765 3.04531 0.685324 3.11681 0.782686 3.16133L15.3227 9.852C15.752 10.0493 16.248 10.0493 16.6774 9.852L31.2174 3.16133C31.3147 3.11681 31.3973 3.04531 31.4553 2.95531C31.5132 2.86531 31.5442 2.76058 31.5445 2.65352C31.5448 2.54646 31.5143 2.44157 31.4568 2.35126C31.3993 2.26096 31.3172 2.18903 31.22 2.144Z" fill="#1DB5BE"/>
</svg>
