<svg width="32" height="15" viewBox="0 0 32 15" fill="none" xmlns="http://www.w3.org/2000/svg">
<path d="M15.2081 0.176L0.781403 6.916C0.683842 6.96074 0.601194 7.03257 0.543297 7.12295C0.4854 7.21332 0.454694 7.31843 0.454834 7.42576C0.454975 7.53309 0.485955 7.63812 0.544088 7.72834C0.602222 7.81857 0.685058 7.89018 0.782736 7.93467L15.3227 14.6253C15.7521 14.8227 16.2481 14.8227 16.6774 14.6253L31.2174 7.93467C31.3151 7.89031 31.3981 7.8188 31.4563 7.72865C31.5146 7.63851 31.5457 7.53352 31.546 7.42619C31.5463 7.31886 31.5157 7.21371 31.4579 7.12326C31.4001 7.03281 31.3176 6.96087 31.2201 6.916L16.7921 0.176C16.5441 0.060125 16.2738 6.86646e-05 16.0001 6.86646e-05C15.7264 6.86646e-05 15.456 0.060125 15.2081 0.176Z" fill="#7C3AED"/>
</svg>
