<svg width="32" height="10" viewBox="0 0 32 10" fill="none" xmlns="http://www.w3.org/2000/svg">
<path opacity="0.64" d="M31.22 1.568L28.24 0.176001C28.0266 0.0762867 27.794 0.0242764 27.5584 0.0235856C27.3229 0.0228948 27.09 0.0735423 26.876 0.172003L16.6773 4.86533C16.4649 4.96302 16.2338 5.0136 16 5.0136C15.7662 5.0136 15.5351 4.96302 15.3227 4.86533L5.12267 0.172003C4.90885 0.0737434 4.67621 0.0232 4.4409 0.0238908C4.20559 0.0245815 3.97324 0.0764877 3.76001 0.176001L0.780006 1.568C0.682503 1.61287 0.599949 1.68481 0.54217 1.77526C0.48439 1.86571 0.453823 1.97086 0.454103 2.07819C0.454384 2.18552 0.485502 2.29051 0.543754 2.38066C0.602006 2.4708 0.684937 2.54231 0.782674 2.58667L15.3227 9.276C15.535 9.37421 15.7661 9.42507 16 9.42507C16.2339 9.42507 16.465 9.37421 16.6773 9.276L31.2173 2.58667C31.3151 2.54231 31.398 2.4708 31.4563 2.38066C31.5145 2.29051 31.5456 2.18552 31.5459 2.07819C31.5462 1.97086 31.5156 1.86571 31.4578 1.77526C31.4001 1.68481 31.3175 1.61287 31.22 1.568Z" fill="#C4B5FD"/>
</svg>
